<svg width="80" height="50" viewBox="0 0 80 50" fill="none" xmlns="http://www.w3.org/2000/svg">
<path d="M58.04 49.88C55.8 49.88 53.624 49.176 51.512 47.768C49.432 46.392 47.656 44.088 46.184 40.856C45.544 39.416 45.016 37.96 44.6 36.488C44.216 35.016 43.928 33.64 43.736 32.36C43.544 31.08 43.448 30.024 43.448 29.192C43.448 28.168 43.56 27.592 43.784 27.464C44.392 27.528 45.4 27.272 46.808 26.696C48.248 26.12 49.944 25.272 51.896 24.152C53.88 23.032 56.008 21.688 58.28 20.12C60.584 18.52 62.888 16.728 65.192 14.744C67.528 12.76 69.768 10.616 71.912 8.312C74.056 6.008 75.944 3.592 77.576 1.064C77.8 0.711998 77.976 0.455997 78.104 0.295998C78.232 0.135998 78.36 0.0559978 78.488 0.0559978C78.648 0.0559978 78.792 0.135998 78.92 0.295998C79.048 0.423998 79.112 0.567998 79.112 0.727998C79.112 0.983998 79 1.288 78.776 1.64C77.24 4.2 75.416 6.712 73.304 9.176C71.224 11.608 69 13.896 66.632 16.04C64.264 18.184 61.88 20.12 59.48 21.848C57.08 23.576 54.792 25.016 52.616 26.168C50.44 27.32 48.52 28.104 46.856 28.52C46.76 28.456 46.712 28.616 46.712 29C46.712 29.544 46.824 30.424 47.048 31.64C47.272 32.824 47.608 34.184 48.056 35.72C48.536 37.224 49.112 38.76 49.784 40.328C51 43.176 52.424 45.128 54.056 46.184C55.72 47.272 57.432 47.816 59.192 47.816C60.312 47.816 61.464 47.592 62.648 47.144C63.832 46.696 64.92 46.072 65.912 45.272C66.904 44.504 67.672 43.592 68.216 42.536C68.408 42.216 68.552 42.056 68.648 42.056C68.872 42.056 68.984 42.184 68.984 42.44C68.984 42.536 68.952 42.632 68.888 42.728C68.856 42.856 68.76 43.096 68.6 43.448C68.152 44.344 67.4 45.288 66.344 46.28C65.32 47.304 64.088 48.152 62.648 48.824C61.24 49.528 59.704 49.88 58.04 49.88ZM17.288 49.256C15.112 49.256 13 48.952 10.952 48.344C8.936 47.768 7.112 46.904 5.48 45.752C3.88 44.6 2.6 43.192 1.64 41.528C0.712 39.864 0.248 37.976 0.248 35.864C0.248 34.328 0.472 32.968 0.92 31.784C1.4 30.568 1.976 29.56 2.648 28.76C3.352 27.96 4.04 27.352 4.712 26.936C5.416 26.52 5.992 26.312 6.44 26.312C6.76 26.312 6.92 26.408 6.92 26.6C6.92 26.76 6.84 26.888 6.68 26.984C5.944 27.368 5.192 27.928 4.424 28.664C3.656 29.4 3.016 30.36 2.504 31.544C1.992 32.728 1.736 34.2 1.736 35.96C1.736 37.88 2.136 39.528 2.936 40.904C3.768 42.248 4.84 43.352 6.152 44.216C7.496 45.08 8.936 45.704 10.472 46.088C12.008 46.504 13.48 46.712 14.888 46.712C18.024 46.712 20.952 46.104 23.672 44.888C26.392 43.672 28.872 42.056 31.112 40.04C33.384 37.992 35.384 35.72 37.112 33.224C38.84 30.728 40.264 28.2 41.384 25.64C41.8 24.712 42.296 23.608 42.872 22.328C43.448 21.016 44.072 19.624 44.744 18.152C45.416 16.68 46.072 15.24 46.712 13.832C47.352 12.424 47.928 11.16 48.44 10.04C48.984 8.888 49.416 8.008 49.736 7.4C47.592 7.656 45.272 7.896 42.776 8.12C40.312 8.312 37.96 8.728 35.72 9.368C33.224 10.072 31.176 11.096 29.576 12.44C28.008 13.784 26.84 15.24 26.072 16.808C25.336 18.376 24.968 19.848 24.968 21.224C24.968 22.888 25.384 24.264 26.216 25.352C27.048 26.408 28.248 26.936 29.816 26.936C31 26.936 32.056 26.6 32.984 25.928C33.912 25.224 34.648 24.328 35.192 23.24C35.736 22.12 36.008 20.936 36.008 19.688C36.008 19.176 35.96 18.744 35.864 18.392C35.768 18.04 35.72 17.768 35.72 17.576C35.72 17.352 35.8 17.24 35.96 17.24C36.184 17.24 36.392 17.432 36.584 17.816C36.904 18.552 37.064 19.272 37.064 19.976C37.064 21.48 36.696 22.84 35.96 24.056C35.224 25.24 34.28 26.184 33.128 26.888C31.976 27.592 30.76 27.944 29.48 27.944C27.976 27.944 26.664 27.592 25.544 26.888C24.456 26.152 23.608 25.192 23 24.008C22.392 22.824 22.088 21.544 22.088 20.168C22.088 18.6 22.52 17.016 23.384 15.416C24.248 13.784 25.64 12.312 27.56 11C29.48 9.656 32.008 8.632 35.144 7.928C37.768 7.352 40.44 6.984 43.16 6.824C45.88 6.632 48.28 6.44 50.36 6.248C51.48 4.52 52.392 3.432 53.096 2.984C53.8 2.504 54.44 2.264 55.016 2.264C55.592 2.264 56.04 2.424 56.36 2.744C56.712 3.064 56.888 3.448 56.888 3.896C56.888 4.536 56.44 5.224 55.544 5.96C54.68 6.664 53.208 7.128 51.128 7.352C50.104 9.24 49.16 11.352 48.296 13.688C47.432 15.992 46.568 18.408 45.704 20.936C44.84 23.464 43.896 25.976 42.872 28.472C41.144 32.632 39.096 36.28 36.728 39.416C34.36 42.52 31.576 44.936 28.376 46.664C25.176 48.392 21.48 49.256 17.288 49.256ZM52.04 6.152C52.84 6.088 53.608 5.864 54.344 5.48C55.08 5.064 55.448 4.616 55.448 4.136C55.448 3.816 55.288 3.656 54.968 3.656C54.68 3.656 54.28 3.848 53.768 4.232C53.256 4.584 52.68 5.224 52.04 6.152Z" fill="white"/>
<path d="M51.512 47.768L52.3441 46.5199L52.3396 46.517L51.512 47.768ZM46.184 40.856L44.8132 41.4652L44.8189 41.4777L46.184 40.856ZM44.6 36.488L43.1486 36.8666L43.1524 36.8813L43.1565 36.8959L44.6 36.488ZM43.784 27.464L43.941 25.9722L43.4599 25.9216L43.0398 26.1616L43.784 27.464ZM46.808 26.696L46.2509 25.3032L46.2401 25.3077L46.808 26.696ZM51.896 24.152L51.1586 22.8457L51.1495 22.8509L51.896 24.152ZM58.28 20.12L59.132 21.3545L59.1356 21.3521L58.28 20.12ZM65.192 14.744L64.221 13.6007L64.2132 13.6073L65.192 14.744ZM71.912 8.312L70.8139 7.29015L70.8139 7.29015L71.912 8.312ZM77.576 1.064L78.8362 1.87757L78.8415 1.86931L77.576 1.064ZM78.104 0.295998L79.2753 1.23305L79.2753 1.23303L78.104 0.295998ZM78.92 0.295998L77.7487 1.23303L77.8006 1.29791L77.8593 1.35665L78.92 0.295998ZM78.776 1.64L77.5105 0.834686L77.4999 0.851334L77.4898 0.868254L78.776 1.64ZM73.304 9.176L72.1651 8.19981L72.1641 8.20105L73.304 9.176ZM66.632 16.04L65.6252 14.9281L65.6252 14.9281L66.632 16.04ZM59.48 21.848L60.3565 23.0653L60.3565 23.0653L59.48 21.848ZM52.616 26.168L53.3178 27.4937L53.3178 27.4937L52.616 26.168ZM46.856 28.52L46.024 29.7681L46.5761 30.1361L47.2198 29.9752L46.856 28.52ZM47.048 31.64L45.5728 31.9117L45.5741 31.9188L47.048 31.64ZM48.056 35.72L46.616 36.14L46.6213 36.1581L46.627 36.1761L48.056 35.72ZM49.784 40.328L51.1635 39.739L51.1627 39.7371L49.784 40.328ZM54.056 46.184L54.8769 44.9285L54.8709 44.9246L54.056 46.184ZM62.648 47.144L63.1788 48.5469L63.1788 48.5469L62.648 47.144ZM65.912 45.272L64.9937 44.0859L64.982 44.095L64.9704 44.1044L65.912 45.272ZM68.216 42.536L66.9298 41.7643L66.9048 41.8059L66.8825 41.8491L68.216 42.536ZM68.888 42.728L67.6399 41.896L67.4958 42.1121L67.4328 42.3642L68.888 42.728ZM68.6 43.448L69.9416 44.1188L69.9541 44.094L69.9656 44.0687L68.6 43.448ZM66.344 46.28L65.317 45.1867L65.2999 45.2028L65.2833 45.2193L66.344 46.28ZM62.648 48.824L62.0137 47.4647L61.9953 47.4733L61.9772 47.4824L62.648 48.824ZM10.952 48.344L11.3789 46.906L11.3715 46.9038L11.3641 46.9017L10.952 48.344ZM5.48 45.752L4.6035 46.9694L4.61498 46.9775L5.48 45.752ZM1.64 41.528L0.329954 42.2586L0.335269 42.2681L0.340722 42.2776L1.64 41.528ZM0.92 31.784L-0.475233 31.2333L-0.479152 31.2432L-0.482929 31.2532L0.92 31.784ZM2.648 28.76L1.52193 27.7691L1.51054 27.782L1.49944 27.7952L2.648 28.76ZM4.712 26.936L3.94891 25.6446L3.9356 25.6525L3.92247 25.6606L4.712 26.936ZM6.68 26.984L7.37385 28.3139L7.41345 28.2932L7.45174 28.2702L6.68 26.984ZM4.424 28.664L5.46186 29.747L5.46186 29.747L4.424 28.664ZM2.504 31.544L3.88079 32.1394L3.88079 32.1394L2.504 31.544ZM2.936 40.904L1.63924 41.6579L1.64967 41.6759L1.6606 41.6935L2.936 40.904ZM6.152 44.216L5.32701 45.4688L5.33391 45.4733L5.34086 45.4778L6.152 44.216ZM10.472 46.088L10.8641 44.6402L10.85 44.6363L10.8358 44.6328L10.472 46.088ZM23.672 44.888L23.0598 43.5186L23.0598 43.5186L23.672 44.888ZM31.112 40.04L32.1154 41.1549L32.1163 41.1542L31.112 40.04ZM37.112 33.224L38.3453 34.0778L38.3453 34.0778L37.112 33.224ZM41.384 25.64L40.0152 25.0264L40.0098 25.0388L41.384 25.64ZM42.872 22.328L44.2399 22.9436L44.2455 22.931L42.872 22.328ZM44.744 18.152L46.1085 18.7749L46.1085 18.7749L44.744 18.152ZM46.712 13.832L45.3465 13.2113L45.3465 13.2113L46.712 13.832ZM48.44 10.04L47.0836 9.39949L47.0797 9.4079L47.0758 9.41636L48.44 10.04ZM49.736 7.4L51.0634 8.09862L52.3931 5.57207L49.5582 5.91058L49.736 7.4ZM42.776 8.12L42.8925 9.61546L42.9013 9.61478L42.9101 9.61399L42.776 8.12ZM35.72 9.368L36.1272 10.8117L36.1321 10.8103L35.72 9.368ZM29.576 12.44L28.6112 11.2914L28.6055 11.2962L28.5998 11.3011L29.576 12.44ZM26.072 16.808L24.7249 16.1482L24.7194 16.1594L24.7141 16.1706L26.072 16.808ZM26.216 25.352L25.0245 26.2632L25.0311 26.2718L25.0378 26.2803L26.216 25.352ZM32.984 25.928L33.8638 27.1429L33.8773 27.1331L33.8906 27.123L32.984 25.928ZM35.192 23.24L36.5336 23.9108L36.5375 23.9031L36.5413 23.8954L35.192 23.24ZM35.864 18.392L34.4169 18.7867L34.4169 18.7867L35.864 18.392ZM36.584 17.816L37.9596 17.2179L37.9436 17.1811L37.9256 17.1452L36.584 17.816ZM35.96 24.056L37.2339 24.8479L37.2386 24.8403L37.2433 24.8327L35.96 24.056ZM33.128 26.888L33.9102 28.1679L33.9102 28.1679L33.128 26.888ZM25.544 26.888L24.7035 28.1304L24.7244 28.1445L24.7457 28.158L25.544 26.888ZM23 24.008L21.6656 24.6932L21.6657 24.6932L23 24.008ZM23.384 15.416L24.7039 16.1287L24.7097 16.1178L23.384 15.416ZM27.56 11L28.4063 12.2385L28.4133 12.2337L28.4202 12.2288L27.56 11ZM35.144 7.928L34.8224 6.46287L34.8154 6.46442L35.144 7.928ZM43.16 6.824L43.2481 8.32141L43.2569 8.32089L43.2656 8.32028L43.16 6.824ZM50.36 6.248L50.4979 7.74165L51.2228 7.67473L51.6187 7.06384L50.36 6.248ZM53.096 2.984L53.9013 4.24949L53.9214 4.23673L53.941 4.22334L53.096 2.984ZM56.36 2.744L55.2993 3.80466L55.3246 3.8299L55.351 3.85391L56.36 2.744ZM55.544 5.96L56.4915 7.12286L56.4961 7.11909L55.544 5.96ZM51.128 7.352L50.9674 5.86062L50.1848 5.94491L49.8095 6.63685L51.128 7.352ZM48.296 13.688L49.7005 14.2147L49.7029 14.2083L48.296 13.688ZM45.704 20.936L47.1234 21.4211L47.1234 21.4211L45.704 20.936ZM42.872 28.472L44.2573 29.0474L44.2598 29.0413L42.872 28.472ZM36.728 39.416L37.9206 40.3258L37.9251 40.3199L36.728 39.416ZM28.376 46.664L29.0887 47.9839L29.0887 47.9839L28.376 46.664ZM52.04 6.152L50.8052 5.3004L49.0131 7.89895L52.1596 7.64722L52.04 6.152ZM54.344 5.48L55.0378 6.80988L55.0602 6.79823L55.0821 6.78584L54.344 5.48ZM53.768 4.232L54.6178 5.46806L54.6433 5.45055L54.668 5.432L53.768 4.232ZM58.04 48.38C56.1344 48.38 54.2435 47.7862 52.3441 46.5199L50.68 49.0161C53.0045 50.5658 55.4656 51.38 58.04 51.38V48.38ZM52.3396 46.517C50.5736 45.3487 48.9515 43.3135 47.5491 40.2343L44.8189 41.4777C46.3605 44.8625 48.2904 47.4353 50.6844 49.019L52.3396 46.517ZM47.5547 40.2468C46.9429 38.8701 46.4395 37.4813 46.0435 36.0801L43.1565 36.8959C43.5925 38.4387 44.1451 39.9619 44.8133 41.4652L47.5547 40.2468ZM46.0514 36.1094C45.6786 34.6802 45.4023 33.3568 45.2194 32.1375L42.2526 32.5825C42.4537 33.9232 42.7534 35.3518 43.1486 36.8666L46.0514 36.1094ZM45.2194 32.1375C45.0331 30.8955 44.948 29.9205 44.948 29.192H41.948C41.948 30.1275 42.0549 31.2645 42.2526 32.5825L45.2194 32.1375ZM44.948 29.192C44.948 28.7165 44.9754 28.4274 45.0044 28.2783C45.0191 28.2029 45.0234 28.2217 44.9907 28.2901C44.9644 28.3453 44.8414 28.5874 44.5282 28.7664L43.0398 26.1616C42.6146 26.4046 42.3936 26.7667 42.2833 26.9979C42.1666 27.2423 42.1009 27.4931 42.0596 27.7057C41.9766 28.1326 41.948 28.6435 41.948 29.192H44.948ZM43.627 28.9558C44.1887 29.0149 44.7925 28.9193 45.3652 28.7738C45.96 28.6228 46.634 28.3879 47.376 28.0843L46.2401 25.3077C45.574 25.5801 45.04 25.7612 44.6268 25.8662C44.1915 25.9767 43.9873 25.9771 43.941 25.9722L43.627 28.9558ZM47.3651 28.0887C48.8922 27.4779 50.6542 26.5939 52.6425 25.453L51.1495 22.8509C49.2338 23.9501 47.6038 24.7621 46.2509 25.3033L47.3651 28.0887ZM52.6334 25.4582C54.6638 24.312 56.8304 22.943 59.132 21.3545L57.428 18.8855C55.1856 20.433 53.0962 21.752 51.1586 22.8458L52.6334 25.4582ZM59.1356 21.3521C61.4857 19.7201 63.8306 17.8958 66.1708 15.8807L64.2132 13.6073C61.9454 15.5602 59.6823 17.3199 57.4244 18.8879L59.1356 21.3521ZM66.163 15.8873C68.5449 13.8643 70.8272 11.6796 73.0101 9.33384L70.8139 7.29015C68.7088 9.55237 66.5111 11.6557 64.221 13.6007L66.163 15.8873ZM73.0101 9.33384C75.2114 6.96826 77.1543 4.48292 78.8362 1.87755L76.3158 0.250446C74.7337 2.70108 72.9006 5.04774 70.8139 7.29015L73.0101 9.33384ZM78.8415 1.86931C79.0597 1.52639 79.2002 1.32693 79.2753 1.23305L76.9327 -0.641055C76.7518 -0.414939 76.5403 -0.102396 76.3105 0.25869L78.8415 1.86931ZM79.2753 1.23303C79.2689 1.2411 79.2115 1.3127 79.091 1.388C78.9599 1.46992 78.7522 1.556 78.488 1.556V-1.444C77.6877 -1.444 77.1748 -0.943653 76.9327 -0.641038L79.2753 1.23303ZM78.488 1.556C78.3053 1.556 78.1315 1.50722 77.9875 1.42723C77.8529 1.35245 77.7778 1.26946 77.7487 1.23303L80.0913 -0.641038C79.7655 -1.04828 79.2266 -1.444 78.488 -1.444V1.556ZM77.8593 1.35665C77.8123 1.30959 77.7463 1.2285 77.6933 1.1092C77.6387 0.986404 77.612 0.854556 77.612 0.727998H80.612C80.612 0.116631 80.3497 -0.395621 79.9807 -0.764655L77.8593 1.35665ZM77.612 0.727998C77.612 0.639075 77.6308 0.601312 77.6205 0.629442C77.6103 0.657196 77.5806 0.724591 77.5105 0.834686L80.0415 2.44531C80.3315 1.98952 80.612 1.39686 80.612 0.727998H77.612ZM77.4898 0.868254C76.0006 3.35017 74.227 5.79424 72.1651 8.19981L74.4429 10.1522C76.605 7.62976 78.4794 5.04983 80.0622 2.41174L77.4898 0.868254ZM72.1641 8.20105C70.1254 10.5847 67.9459 12.8269 65.6252 14.9281L67.6388 17.1519C70.0541 14.9651 72.3226 12.6313 74.4439 10.1509L72.1641 8.20105ZM65.6252 14.9281C63.2954 17.0375 60.9547 18.9378 58.6035 20.6307L60.3565 23.0653C62.8053 21.3022 65.2326 19.3305 67.6388 17.1519L65.6252 14.9281ZM58.6035 20.6307C56.2485 22.3263 54.0189 23.728 51.9142 24.8423L53.3178 27.4937C55.5651 26.304 57.9115 24.8257 60.3565 23.0653L58.6035 20.6307ZM51.9142 24.8423C49.8031 25.96 48 26.6878 46.4922 27.0648L47.2198 29.9752C49.04 29.5202 51.0769 28.68 53.3178 27.4937L51.9142 24.8423ZM47.688 27.2719C47.542 27.1746 47.2955 27.0448 46.9645 27.0133C46.6013 26.9787 46.2489 27.0739 45.961 27.2659C45.4833 27.5844 45.3432 28.0544 45.3113 28.161C45.2184 28.4705 45.212 28.8016 45.212 29H48.212C48.212 28.8144 48.2296 28.8735 48.1847 29.023C48.1768 29.0495 48.0667 29.4676 47.625 29.7621C47.3551 29.9421 47.0222 30.0323 46.68 29.9997C46.37 29.9702 46.146 29.8494 46.024 29.7681L47.688 27.2719ZM45.212 29C45.212 29.6926 45.3477 30.6899 45.5728 31.9117L48.5232 31.3683C48.3003 30.1581 48.212 29.3954 48.212 29H45.212ZM45.5741 31.9188C45.8095 33.1629 46.1585 34.5716 46.616 36.14L49.496 35.3C49.0575 33.7964 48.7345 32.4851 48.5219 31.3612L45.5741 31.9188ZM46.627 36.1761C47.1227 37.7293 47.7159 39.3103 48.4053 40.9189L51.1627 39.7371C50.5081 38.2097 49.9493 36.7187 49.485 35.2639L46.627 36.1761ZM48.4045 40.917C49.674 43.8903 51.25 46.155 53.2411 47.4434L54.8709 44.9246C53.598 44.101 52.326 42.4617 51.1635 39.739L48.4045 40.917ZM53.2351 47.4395C55.1105 48.6657 57.1037 49.316 59.192 49.316V46.316C57.7603 46.316 56.3295 45.8783 54.8769 44.9285L53.2351 47.4395ZM59.192 49.316C60.5154 49.316 61.8471 49.0508 63.1788 48.5469L62.1172 45.7411C61.0809 46.1332 60.1086 46.316 59.192 46.316V49.316ZM63.1788 48.5469C64.5124 48.0424 65.7389 47.3386 66.8536 46.4396L64.9704 44.1044C64.1011 44.8054 63.1516 45.3497 62.1172 45.7411L63.1788 48.5469ZM66.8303 46.4581C67.9855 45.5637 68.8996 44.4845 69.5495 43.2229L66.8825 41.8491C66.4444 42.6995 65.8225 43.4443 64.9937 44.0859L66.8303 46.4581ZM69.5022 43.3077C69.5791 43.1797 69.6055 43.1544 69.5829 43.1795C69.572 43.1916 69.5107 43.2596 69.3991 43.3341C69.2987 43.401 69.0342 43.556 68.648 43.556V40.556C68.2138 40.556 67.8953 40.731 67.735 40.8379C67.5633 40.9524 67.436 41.0804 67.3531 41.1725C67.1865 41.3576 67.0449 41.5723 66.9298 41.7643L69.5022 43.3077ZM68.648 43.556C68.4729 43.556 68.0835 43.4967 67.7711 43.1398C67.4923 42.8211 67.484 42.4977 67.484 42.44H70.484C70.484 42.1263 70.4197 41.6109 70.0289 41.1642C69.6045 40.6793 69.0472 40.556 68.648 40.556V43.556ZM67.484 42.44C67.484 42.1845 67.5733 41.9959 67.6399 41.896L70.1361 43.56C70.3307 43.2681 70.484 42.8875 70.484 42.44H67.484ZM67.4328 42.3642C67.4395 42.3375 67.4427 42.3307 67.4353 42.3522C67.4287 42.3709 67.4173 42.4018 67.3993 42.4469C67.3629 42.5378 67.3091 42.6631 67.2345 42.8273L69.9656 44.0687C70.1169 43.7357 70.2727 43.3737 70.3432 43.0918L67.4328 42.3642ZM67.2584 42.7772C66.9164 43.4612 66.2966 44.2665 65.317 45.1867L67.371 47.3733C68.5034 46.3095 69.3877 45.2268 69.9416 44.1188L67.2584 42.7772ZM65.2833 45.2193C64.3944 46.1083 63.3106 46.8595 62.0137 47.4647L63.2823 50.1833C64.8654 49.4445 66.2456 48.4997 67.4047 47.3407L65.2833 45.2193ZM61.9772 47.4824C60.7893 48.0763 59.4848 48.38 58.04 48.38V51.38C59.9232 51.38 61.6907 50.9797 63.3188 50.1656L61.9772 47.4824ZM17.288 47.756C15.2538 47.756 13.2858 47.4721 11.3789 46.906L10.5251 49.782C12.7142 50.4319 14.9702 50.756 17.288 50.756V47.756ZM11.3641 46.9017C9.50207 46.3697 7.83258 45.5766 6.34503 44.5265L4.61498 46.9775C6.39142 48.2314 8.36993 49.1663 10.5399 49.7863L11.3641 46.9017ZM6.35646 44.5347C4.92428 43.5035 3.79023 42.2534 2.93928 40.7784L0.340722 42.2776C1.40977 44.1306 2.83572 45.6965 4.60354 46.9693L6.35646 44.5347ZM2.95005 40.7974C2.15973 39.3803 1.748 37.7486 1.748 35.864H-1.252C-1.252 38.2034 -0.73573 40.3477 0.329954 42.2586L2.95005 40.7974ZM1.748 35.864C1.748 34.4718 1.95118 33.2973 2.32293 32.3148L-0.482929 31.2532C-1.00718 32.6387 -1.252 34.1842 -1.252 35.864H1.748ZM2.31523 32.3347C2.75013 31.233 3.25091 30.3744 3.79656 29.7248L1.49944 27.7952C0.701087 28.7456 0.0498708 29.903 -0.475233 31.2333L2.31523 32.3347ZM3.77407 29.7509C4.4121 29.0259 4.99015 28.528 5.50153 28.2114L3.92247 25.6606C3.08985 26.176 2.2919 26.8941 1.52193 27.7691L3.77407 29.7509ZM5.47509 28.2274C5.77144 28.0523 6.00518 27.9425 6.18147 27.8788C6.36191 27.8137 6.44051 27.812 6.44 27.812V24.812C5.58257 24.812 4.72121 25.1882 3.94891 25.6446L5.47509 28.2274ZM6.44 27.812C6.49897 27.812 6.29382 27.8296 6.02826 27.6702C5.87311 27.5772 5.70279 27.4257 5.57876 27.2025C5.45585 26.9812 5.42 26.7644 5.42 26.6H8.42C8.42 25.9958 8.11938 25.4263 7.57174 25.0978C7.14618 24.8424 6.70103 24.812 6.44 24.812V27.812ZM5.42 26.6C5.42 26.4165 5.46993 26.2099 5.588 26.021C5.69981 25.8421 5.83216 25.7434 5.90826 25.6978L7.45174 28.2702C7.97475 27.9564 8.42 27.3828 8.42 26.6H5.42ZM5.98615 25.6541C5.09484 26.1192 4.22934 26.773 3.38614 27.581L5.46186 29.747C6.15467 29.083 6.79317 28.6168 7.37385 28.3139L5.98615 25.6541ZM3.38614 27.581C2.44659 28.4814 1.70209 29.6192 1.12721 30.9486L3.88079 32.1394C4.32991 31.1008 4.86541 30.3186 5.46186 29.747L3.38614 27.581ZM1.12721 30.9486C0.510082 32.3758 0.236 34.0653 0.236 35.96H3.236C3.236 34.3347 3.47392 33.0802 3.88079 32.1394L1.12721 30.9486ZM0.236 35.96C0.236 38.0902 0.681115 40.01 1.63924 41.6579L4.23276 40.1501C3.59088 39.046 3.236 37.6698 3.236 35.96H0.236ZM1.6606 41.6935C2.60657 43.2216 3.83185 44.4841 5.32701 45.4688L6.97699 42.9632C5.84815 42.2199 4.92943 41.2744 4.2114 40.1145L1.6606 41.6935ZM5.34086 45.4778C6.82115 46.4294 8.41207 47.1192 10.1082 47.5432L10.8358 44.6328C9.45993 44.2888 8.17085 43.7306 6.96314 42.9542L5.34086 45.4778ZM10.0799 47.5358C11.7274 47.982 13.3317 48.212 14.888 48.212V45.212C13.6283 45.212 12.2886 45.026 10.8641 44.6402L10.0799 47.5358ZM14.888 48.212C18.2237 48.212 21.3615 47.564 24.2842 46.2574L23.0598 43.5186C20.5425 44.644 17.8243 45.212 14.888 45.212V48.212ZM24.2842 46.2574C27.1487 44.9768 29.7605 43.2744 32.1154 41.1549L30.1086 38.9251C27.9835 40.8376 25.6353 42.3672 23.0598 43.5186L24.2842 46.2574ZM32.1163 41.1542C34.4738 39.0291 36.5508 36.6699 38.3453 34.0778L35.8787 32.3702C34.2172 34.7701 32.2942 36.9549 30.1077 38.9258L32.1163 41.1542ZM38.3453 34.0778C40.1236 31.5091 41.5963 28.897 42.7582 26.2412L40.0098 25.0388C38.9317 27.503 37.5564 29.9469 35.8787 32.3702L38.3453 34.0778ZM42.7528 26.2536C43.1684 25.3264 43.6641 24.2231 44.2399 22.9435L41.5041 21.7125C40.9279 22.9929 40.4316 24.0976 40.0152 25.0264L42.7528 26.2536ZM44.2455 22.931C44.8182 21.6264 45.4392 20.2411 46.1085 18.7749L43.3795 17.5291C42.7048 19.0069 42.0778 20.4056 41.4985 21.725L44.2455 22.931ZM46.1085 18.7749C46.7809 17.3022 47.4372 15.8615 48.0776 14.4527L45.3465 13.2113C44.7068 14.6185 44.0511 16.0578 43.3795 17.5291L46.1085 18.7749ZM48.0775 14.4527C48.7172 13.0454 49.2928 11.7825 49.8042 10.6636L47.0758 9.41636C46.5632 10.5375 45.9868 11.8025 45.3465 13.2113L48.0775 14.4527ZM49.7964 10.6805C50.3375 9.53461 50.7586 8.6777 51.0634 8.09862L48.4086 6.70138C48.0734 7.33829 47.6305 8.24139 47.0836 9.39949L49.7964 10.6805ZM49.5582 5.91058C47.4308 6.16459 45.1256 6.40311 42.6419 6.626L42.9101 9.61399C45.4184 9.38888 47.7532 9.14741 49.9138 8.88942L49.5582 5.91058ZM42.6595 6.62453C40.1015 6.82386 37.6501 7.25653 35.3079 7.92571L36.1321 10.8103C38.2699 10.1995 40.5225 9.80014 42.8925 9.61546L42.6595 6.62453ZM35.3128 7.92432C32.6601 8.67252 30.4083 9.78185 28.6112 11.2914L30.5408 13.5886C31.9437 12.4101 33.7879 11.4715 36.1272 10.8117L35.3128 7.92432ZM28.5998 11.3011C26.9048 12.754 25.5975 14.3666 24.7249 16.1482L27.4191 17.4678C28.0825 16.1134 29.1112 14.814 30.5522 13.5789L28.5998 11.3011ZM24.7141 16.1706C23.908 17.888 23.468 19.5783 23.468 21.224H26.468C26.468 20.1177 26.764 18.864 27.4299 17.4454L24.7141 16.1706ZM23.468 21.224C23.468 23.1447 23.9523 24.8612 25.0245 26.2632L27.4075 24.4408C26.8157 23.6668 26.468 22.6313 26.468 21.224H23.468ZM25.0378 26.2803C26.2034 27.7598 27.8744 28.436 29.816 28.436V25.436C28.6217 25.436 27.8926 25.0562 27.3942 24.4237L25.0378 26.2803ZM29.816 28.436C31.3047 28.436 32.6709 28.0067 33.8638 27.1429L32.1042 24.7131C31.4411 25.1933 30.6953 25.436 29.816 25.436V28.436ZM33.8906 27.123C35.0101 26.2738 35.8914 25.1952 36.5336 23.9108L33.8504 22.5692C33.4046 23.4608 32.8139 24.1742 32.0774 24.733L33.8906 27.123ZM36.5413 23.8954C37.1847 22.5706 37.508 21.1625 37.508 19.688H34.508C34.508 20.7095 34.2873 21.6694 33.8427 22.5846L36.5413 23.8954ZM37.508 19.688C37.508 19.0918 37.4532 18.518 37.3111 17.9973L34.4169 18.7867C34.4668 18.97 34.508 19.2602 34.508 19.688H37.508ZM37.3111 17.9973C37.2716 17.8524 37.2472 17.7426 37.2332 17.6633C37.2184 17.5795 37.22 17.5558 37.22 17.576H34.22C34.22 17.9721 34.3112 18.3994 34.4169 18.7867L37.3111 17.9973ZM37.22 17.576C37.22 17.5973 37.2244 17.8826 37.0006 18.1959C36.8766 18.3695 36.7029 18.5206 36.4893 18.6203C36.2837 18.7162 36.0943 18.74 35.96 18.74V15.74C35.4857 15.74 34.9296 15.9339 34.5594 16.4521C34.2556 16.8774 34.22 17.3307 34.22 17.576H37.22ZM35.96 18.74C35.6029 18.74 35.3637 18.5758 35.2666 18.4862C35.187 18.4128 35.1899 18.3818 35.2424 18.4868L37.9256 17.1452C37.7112 16.7164 37.1307 15.74 35.96 15.74V18.74ZM35.2084 18.4141C35.4578 18.9877 35.564 19.5047 35.564 19.976H38.564C38.564 19.0393 38.3502 18.1163 37.9596 17.2179L35.2084 18.4141ZM35.564 19.976C35.564 21.2228 35.2626 22.3114 34.6768 23.2793L37.2433 24.8327C38.1294 23.3686 38.564 21.7372 38.564 19.976H35.564ZM34.6861 23.2641C34.0695 24.256 33.2914 25.0302 32.3458 25.6081L33.9102 28.1679C35.2686 27.3378 36.3785 26.224 37.2339 24.8479L34.6861 23.2641ZM32.3458 25.6081C31.4159 26.1764 30.4686 26.444 29.48 26.444V29.444C31.0514 29.444 32.5361 29.0076 33.9102 28.1679L32.3458 25.6081ZM29.48 26.444C28.2188 26.444 27.1916 26.1519 26.3423 25.618L24.7457 28.158C26.1364 29.0321 27.7332 29.444 29.48 29.444V26.444ZM26.3845 25.6456C25.5082 25.0528 24.8288 24.2856 24.3343 23.3228L21.6657 24.6932C22.3872 26.0984 23.4038 27.2512 24.7035 28.1304L26.3845 25.6456ZM24.3344 23.3228C23.839 22.3581 23.588 21.314 23.588 20.168H20.588C20.588 21.774 20.945 23.2899 21.6656 24.6932L24.3344 23.3228ZM23.588 20.168C23.588 18.886 23.9391 17.5449 24.7039 16.1287L22.0641 14.7033C21.1009 16.4871 20.588 18.314 20.588 20.168H23.588ZM24.7097 16.1178C25.434 14.7496 26.6363 13.448 28.4063 12.2385L26.7137 9.76153C24.6437 11.176 23.062 12.8184 22.0583 14.7142L24.7097 16.1178ZM28.4202 12.2288C30.1324 11.0303 32.4611 10.0676 35.4726 9.39157L34.8154 6.46442C31.5549 7.19638 28.8276 8.28169 26.6998 9.77115L28.4202 12.2288ZM35.4656 9.39312C38.0117 8.83423 40.6055 8.47685 43.2481 8.32141L43.0719 5.32659C40.2745 5.49114 37.5244 5.86977 34.8224 6.46288L35.4656 9.39312ZM43.2656 8.32028C45.9933 8.12773 48.4045 7.93488 50.4979 7.74165L50.2221 4.75435C48.1555 4.94511 45.7667 5.13627 43.0544 5.32772L43.2656 8.32028ZM51.6187 7.06384C52.7454 5.32552 53.504 4.5023 53.9013 4.24949L52.2907 1.7185C51.28 2.3617 50.2146 3.71448 49.1013 5.43216L51.6187 7.06384ZM53.941 4.22334C54.5088 3.8362 54.854 3.764 55.016 3.764V0.763998C54.026 0.763998 53.0912 1.17179 52.251 1.74466L53.941 4.22334ZM55.016 3.764C55.1672 3.764 55.2475 3.78518 55.2795 3.79661C55.295 3.80215 55.301 3.80599 55.301 3.806C55.3013 3.80615 55.3009 3.80593 55.3002 3.8054C55.2995 3.80487 55.2992 3.80453 55.2993 3.80466L57.4207 1.68334C56.7479 1.01058 55.8759 0.763998 55.016 0.763998V3.764ZM55.351 3.85391C55.3745 3.87524 55.3863 3.88969 55.391 3.896C55.3955 3.90198 55.3948 3.90219 55.3924 3.89698C55.39 3.89162 55.3883 3.88608 55.3875 3.88244C55.3868 3.87906 55.388 3.88276 55.388 3.896H58.388C58.388 2.99679 58.0119 2.21855 57.369 1.63409L55.351 3.85391ZM55.388 3.896C55.388 3.85345 55.4049 3.90478 55.295 4.07349C55.1812 4.2482 54.9662 4.49347 54.5919 4.80091L56.4961 7.11909C57.4746 6.31531 58.388 5.24102 58.388 3.896H55.388ZM54.5965 4.79715C54.0809 5.21725 52.9739 5.64453 50.9674 5.86062L51.2886 8.84338C53.4421 8.61146 55.2791 8.11075 56.4915 7.12285L54.5965 4.79715ZM49.8095 6.63685C48.7466 8.59657 47.7741 10.775 46.8891 13.1677L49.7029 14.2083C50.5459 11.929 51.4614 9.88343 52.4466 8.06714L49.8095 6.63685ZM46.8915 13.1613C46.0219 15.4802 45.153 17.9101 44.2846 20.4509L47.1234 21.4211C47.983 18.9059 48.8421 16.5038 49.7005 14.2147L46.8915 13.1613ZM44.2846 20.4509C43.4304 22.9502 42.497 25.4341 41.4842 27.9027L44.2598 29.0413C45.295 26.5179 46.2496 23.9778 47.1234 21.4211L44.2846 20.4509ZM41.4868 27.8966C39.8004 31.9563 37.8124 35.4907 35.5309 38.5121L37.9251 40.3199C40.3796 37.0693 42.4876 33.3077 44.2572 29.0474L41.4868 27.8966ZM35.5354 38.5062C33.2868 41.4537 30.6626 43.7245 27.6633 45.3441L29.0887 47.9839C32.4894 46.1475 35.4332 43.5863 37.9206 40.3258L35.5354 38.5062ZM27.6633 45.3441C24.7136 46.937 21.2694 47.756 17.288 47.756V50.756C21.6906 50.756 25.6384 49.847 29.0887 47.9839L27.6633 45.3441ZM52.1596 7.64722C53.1671 7.56662 54.1297 7.28367 55.0378 6.80988L53.6502 4.15012C53.0863 4.44432 52.5129 4.60938 51.9204 4.65678L52.1596 7.64722ZM55.0821 6.78584C55.9249 6.30948 56.948 5.47419 56.948 4.136H53.948C53.948 4.05914 53.9637 3.98991 53.9846 3.93706C54.0043 3.88746 54.0219 3.86901 54.0129 3.87989C54.0032 3.89175 53.9715 3.92681 53.9025 3.98074C53.834 4.03437 53.7376 4.09974 53.6059 4.17416L55.0821 6.78584ZM56.948 4.136C56.948 3.74478 56.8492 3.17586 56.3887 2.71534C55.9281 2.25482 55.3592 2.156 54.968 2.156V5.156C54.8968 5.156 54.5679 5.13718 54.2673 4.83665C53.9668 4.53614 53.948 4.20721 53.948 4.136H56.948ZM54.968 2.156C54.5106 2.156 54.1065 2.30197 53.8029 2.44771C53.4852 2.60023 53.1712 2.80457 52.868 3.032L54.668 5.432C54.8768 5.27543 55.0188 5.19176 55.1011 5.15228C55.1401 5.13355 55.1501 5.13236 55.1342 5.13679C55.119 5.14104 55.0603 5.156 54.968 5.156V2.156ZM52.9182 2.99593C52.1791 3.50407 51.4786 4.32396 50.8052 5.3004L53.2748 7.0036C53.8814 6.12404 54.3329 5.66393 54.6178 5.46806L52.9182 2.99593Z" fill="#ECECEC"/>
</svg>
